<?xml version="1.0" encoding="UTF-8"?><svg id="b" xmlns="http://www.w3.org/2000/svg" viewBox="0 0 120 48"><defs><style>.e{fill:none;}.f{fill:#001eff;}</style></defs><g id="c"><g id="d"><path class="f" d="M.82,4.82C.82,3.05.49,1.35,0,.49v-.13h13.23v4.02h-.11c-1.17-.68-3.05-1.04-5.54-1.04h-2.61v5.52h2.69c2.16,0,3.34-.13,4.42-.38h.13v3.95h-.13c-1.08-.24-2.25-.38-4.42-.38h-2.69v4.22c0,1.77.33,3.47.82,4.33v.13H0v-.13c.49-.84.82-2.56.82-4.33V4.82h0ZM27.17,3.36h-.82v12.92c0,1.77.33,3.47.82,4.33v.13h-5.79v-.13c.49-.84.82-2.56.82-4.33V3.36h-.82c-2.21,0-4.02.35-5.32,1.15h-.13V.38h16.7v4.13h-.13c-1.3-.8-3.11-1.15-5.32-1.15h0ZM35.34,19.86v-4.46h.13c1.94,1.77,3.6,2.5,5.79,2.5s3.29-.82,3.29-2.39-1.46-2.25-4.11-3.29c-2.87-1.1-5.52-2.28-5.52-5.99s2.83-6.23,7.44-6.23,3.31.29,4.64.86v4.13h-.13c-1.52-1.26-2.96-1.86-4.64-1.86s-3.16.84-3.16,2.41,1.46,2.25,4.11,3.29c2.87,1.1,5.52,2.28,5.52,5.99s-2.92,6.18-7.6,6.18-4.13-.44-5.77-1.19h0v.04ZM51.53,20.61c.49-.84.82-2.56.82-4.33V4.82c0-1.77-.33-3.47-.82-4.33v-.13h12.99v3.87h-.11c-1.17-.6-3.05-.86-5.54-.86h-2.36v5.3h2.32c2.16,0,3.34-.13,4.42-.38h.13v3.95h-.13c-1.08-.24-2.25-.38-4.42-.38h-2.32v5.9h2.32c2.61,0,4.73-.35,6.27-1.15h.13v4.13h-13.7v-.13h0ZM4.97,43.21c0,1.77.33,3.47.82,4.31v.13H0v-.13c.49-.84.82-2.56.82-4.31v-11.46C.82,29.98.49,28.27,0,27.41v-.13h7.82c5.08,0,7.73,2.05,7.73,5.94s-1.46,4.57-4.24,5.35c.8.6,1.3,1.35,1.77,2.14l2.05,3.51c1.04,1.72,1.72,2.63,2.5,3.29v.13h-4.73c-.71-.27-1.44-1.06-2.23-2.69l-1.3-2.69c-.95-1.99-1.57-2.63-2.76-2.63h-1.66v3.56h0l.02.02ZM7.82,36.65c2.39,0,3.45-.97,3.45-3.11s-1.1-3.18-3.45-3.18h-2.85v6.3h2.85ZM23.97,40.45c0,2.76,1.5,4.17,4.42,4.17s4.29-1.41,4.29-4.17v-8.68c0-1.77-.33-3.47-.82-4.33v-.13h5.19v.13c-.49.84-.82,2.56-.82,4.33v8.68c0,4.86-2.81,7.55-8.08,7.55s-8.35-2.63-8.35-7.38v-8.86c0-1.77-.33-3.47-.82-4.33v-.13h5.79v.13c-.49.84-.82,2.56-.82,4.33v8.68h.02ZM40.36,46.81v-4.46h.13c1.97,1.77,3.62,2.5,5.79,2.5s3.29-.82,3.29-2.39-1.46-2.25-4.11-3.29c-2.87-1.1-5.52-2.28-5.52-5.99s2.83-6.23,7.44-6.23,3.31.31,4.64.86v4.13h-.13c-1.52-1.26-2.96-1.86-4.64-1.86s-3.16.84-3.16,2.41,1.46,2.25,4.11,3.29c2.87,1.1,5.52,2.28,5.52,5.96s-2.92,6.18-7.6,6.18-4.13-.44-5.77-1.19h0v.07ZM56.66,46.81v-4.46h.13c1.97,1.77,3.62,2.5,5.79,2.5s3.29-.82,3.29-2.39-1.46-2.25-4.11-3.29c-2.87-1.1-5.52-2.28-5.52-5.99s2.83-6.23,7.44-6.23,3.31.31,4.64.86v4.13h-.13c-1.52-1.26-2.96-1.86-4.64-1.86s-3.16.84-3.16,2.41,1.46,2.25,4.11,3.29c2.87,1.1,5.52,2.28,5.52,5.96s-2.92,6.18-7.6,6.18-4.13-.44-5.77-1.19h0v.07ZM72.85,47.54c.49-.84.82-2.56.82-4.31v-11.46c0-1.77-.33-3.47-.82-4.33v-.13h12.99v3.87h-.11c-1.17-.6-3.05-.86-5.54-.86h-2.36v5.3h2.32c2.16,0,3.34-.13,4.42-.38h.13v3.95h-.13c-1.08-.24-2.25-.38-4.42-.38h-2.32v5.9h2.32c2.61,0,4.73-.35,6.27-1.15h.13v4.13h-13.7v-.13h0v-.02ZM90.04,47.54c.49-.84.82-2.56.82-4.31v-11.46c0-1.77-.33-3.47-.82-4.33v-.13h5.79v.13c-.49.84-.82,2.56-.82,4.33v12.92h1.86c2.61,0,4.71-.38,6.27-1.17h.13v4.15h-13.23v-.13ZM106.07,47.54c.49-.84.82-2.56.82-4.31v-11.46c0-1.77-.33-3.47-.82-4.33v-.13h5.79v.13c-.49.84-.82,2.56-.82,4.33v12.92h1.86c2.61,0,4.71-.38,6.27-1.17h.13v4.15h-13.23v-.13Z"/></g><rect class="e" width="120" height="48"/></g></svg>