<?xml version="1.0" encoding="utf-8"?>
<!-- Generator: Adobe Illustrator 24.1.2, SVG Export Plug-In . SVG Version: 6.00 Build 0)  -->
<svg version="1.1" id="Layer_1" xmlns="http://www.w3.org/2000/svg" xmlns:xlink="http://www.w3.org/1999/xlink" x="0px" y="0px"
	 viewBox="0 0 1250.1 492.6" style="enable-background:new 0 0 1250.1 492.6;" xml:space="preserve">
<style type="text/css">
	.st0{fill:#D6002A;}
</style>
<path d="M90.3,117.1c-9.6,9.6-24.3,13.5-39.7,13.5c-13.3,0-27.3-3.5-37.6-12.9C4.9,110.1,0.1,99.5,0,88.4h23.4
	c0.1,5.8,2.4,11.3,6.6,15.4c5.3,5.3,13.8,6.7,21.1,6.7c8.7,0,17-1.8,21.8-6.7c2.8-3,5-6,5-12c0-9.2-7.2-13.5-14.9-14.9
	c-8.5-1.6-19.5-1.9-27.8-3.4C17.7,70.7,3.2,59.4,3.2,38.4c0-9.9,4.4-18.3,11-24.8C22.5,5.5,36.3,0.4,51,0.4
	c13.5,0,26.6,4.2,35.1,12.2c7.4,7.1,12.6,16.3,12.8,26.8H75.5c-0.4-4.6-2.3-9-5.5-12.4c-4.1-4.2-12.4-6.7-19.1-6.7
	c-7.1,0-15.2,1.6-20.4,6.9c-2.8,2.8-4.3,6.7-4.2,10.6c0,8.1,5.3,12.4,12.8,13.6c8,1.2,19.1,2.1,27.3,3.2
	c18.8,2.7,34.5,14.9,34.5,36.3C100.8,102.6,96.6,110.9,90.3,117.1z"/>
<path d="M204.4,128.4l-8.9-9.9c-9.9,8.6-22.5,13.2-35.6,13.1c-22.3,0-41.6-14.5-41.6-38.1c0-15.6,9-26.4,22.3-34.5
	c-8-8.7-13.5-15.6-13.5-27.3c0-19.8,15.4-31.7,34.4-31.7c18.2,0,34.7,11.3,34.7,31c0,16.3-9.9,25.7-23.7,33.7l21.8,23.7
	c2.1-3.9,2.8-9.6,3.2-15.4c0.4-5.7,0.4-11.5,0.4-15.4h32.4v17.5h-14.5c-0.5,9.7-2.3,19.8-7.6,28.2c8,8.5,15.4,16.8,23.2,25.2H204.4z
	 M153.6,72.8c-8.3,5-14.9,9.2-14.9,19.8c0,12.9,10.6,19.7,22.5,19.7c7.4,0,15.6-1.8,21.1-7.8C172.5,93.9,163.3,83.4,153.6,72.8z
	 M161.6,18.2c-7.3,0-14,4.4-14,13.1c0,8.1,6.7,14,11.9,19.3c7.8-4.2,16.1-8.3,16.1-18.8C175.6,23.2,169.5,18.2,161.6,18.2
	L161.6,18.2z"/>
<path d="M302,83.3h-26.6v45h-22.7V2.7H302c28.9,0,44.3,16.1,44.3,40.2S330.9,83.3,302,83.3z M301.1,22.7h-25.7v40.6h25.7
	c15.2,0,22.1-8.2,22.1-20.2S316.4,22.7,301.1,22.7L301.1,22.7z"/>
<path d="M481.8,114.8c-8.3,8.7-20.9,13.5-35.2,13.5h-48.9V2.7h48.9c14.4,0,26.9,4.8,35.2,13.5c12.9,13.3,14.7,31.9,14.7,49.2
	S494.8,101.5,481.8,114.8z M464.3,30.3c-4.7-4.6-11.1-7.2-17.7-7.1h-26v84.5h26c6.6,0.1,13-2.5,17.7-7.1c8.9-8.9,9-23.7,9-35.2
	S473.2,39.2,464.3,30.3L464.3,30.3z"/>
<path d="M586.9,116.2c-6.4,7.8-18.2,14.3-32.2,14.3s-25.9-6.6-32.2-14.3c-6.9-8.7-10.8-18.4-10.8-34s3.9-25.3,10.8-34
	c6.4-7.8,18.2-14.4,32.2-14.4s25.9,6.5,32.2,14.3c6.9,8.7,10.8,18.4,10.8,34S593.8,107.6,586.9,116.2z M568.7,59
	c-7.6-7.7-20.1-7.8-27.8-0.2c-0.1,0.1-0.1,0.1-0.2,0.2c-5.3,5.8-6.5,14.5-6.5,23.2s1.2,17.4,6.5,23.2c7.6,7.7,20.1,7.8,27.8,0.2
	c0.1-0.1,0.1-0.1,0.2-0.2c5.3-5.8,6.5-14.5,6.5-23.2S574,64.8,568.7,59z"/>
<path d="M714.3,128.3h-20.5l-20.9-62.2l-20.6,62.2h-20.5l-23.4-92.1h21.4l14.7,60.4L663.8,37H682l19.5,59.3l14.1-60.2h21.1
	L714.3,128.3z"/>
<path d="M811.2,130.7c-11.9,0-20.5-3.9-26.8-10.3c-7.4-7.6-11-17.9-11-31.5h22.1c0,6.2,0.7,12.6,4.6,16.8c2.9,3,6.9,4.7,11,4.6
	c10.3,0,15.2-6.7,15.2-17V2.7h22.8v88.9C849.2,115.3,835.2,130.7,811.2,130.7z"/>
<path d="M943.1,116.2c-6.4,7.8-18.2,14.3-32.2,14.3s-25.9-6.6-32.2-14.3c-6.9-8.7-10.8-18.4-10.8-34s3.9-25.3,10.8-34
	c6.4-7.8,18.2-14.3,32.2-14.3s25.9,6.5,32.2,14.3c6.9,8.7,10.8,18.4,10.8,34S950,107.6,943.1,116.2z M924.9,59
	c-7.6-7.7-20.1-7.8-27.8-0.2c-0.1,0.1-0.1,0.1-0.2,0.2c-5.3,5.8-6.5,14.5-6.5,23.2s1.2,17.4,6.5,23.2c7.6,7.7,20.1,7.8,27.8,0.2
	c0.1-0.1,0.1-0.1,0.2-0.2c5.3-5.8,6.5-14.5,6.5-23.2S930.2,64.8,924.9,59z"/>
<path d="M1031.5,128.3V71.8c0-10.8-3.5-17.4-15.2-17.4c-7.8,0-12.9,5-15.9,11.7c-3.2,7.3-3,16.8-3,24.6v37.6h-22.2V36.1h18.6
	l1.6,11.9c5.5-9.7,16.5-14.2,27.1-14.2c19.7,0,31.2,13.8,31.2,33v61.4H1031.5z"/>
<path d="M1157.7,89.1H1096c-0.2,7.1,2.3,13.8,6.7,18.1c3.6,3.6,8.5,5.6,13.6,5.7c6.4,0,10.3-1.2,13.5-4.4c2.2-2.1,3.7-4.8,4.4-7.8
	h21.3c-0.5,5.5-4.2,12.8-7.8,17c-7.8,9.2-19.3,12.9-31,12.9c-12.6,0-21.8-4.4-29.1-11.3c-9.2-8.9-14.2-21.8-14.2-36.8
	c0-14.7,4.4-27.8,13.3-36.8c6.9-7.1,16.8-11.7,29.4-11.7c13.6,0,26,5.5,33.7,17c6.7,10.1,8.3,20.5,8,32.1
	C1157.8,82.9,1157.7,87.2,1157.7,89.1z M1130,56.9c-3-3.2-7.6-5.3-14-5.3c-6.7,0-12.2,2.8-15.4,7.1c-3.2,4.1-4.6,8.3-4.8,14.3h39.8
	C1135.5,66.1,1133.6,60.8,1130,56.9L1130,56.9z"/>
<path d="M1242.2,119.9c-7.4,7.4-19,10.6-31.5,10.6c-11.7,0-22.1-3.4-29.8-10.6c-5.3-5.1-9.7-12.8-9.7-21.4h20.7
	c0.1,4.1,1.9,8.1,5,10.8c3.5,2.8,7.6,4.1,14,4.1c7.4,0,18.8-1.6,18.8-11.7c0-5.3-3.5-8.9-9.2-9.7c-8.2-1.2-17.4-1.8-25.5-3.5
	c-12.6-2.7-21.1-12.9-21.1-24.6c-0.2-8,3.3-15.6,9.4-20.7c6.7-5.8,16.5-9.2,28-9.2c11,0,22.1,3.5,28.9,10.8c5,5.3,8.2,12.2,8.2,19
	h-21.1c-0.1-3.3-1.4-6.4-3.7-8.7c-2.7-2.7-7.4-4.2-12-4.2c-3.2,0-6.2,0-9.6,1.4c-3.9,1.6-7.1,5-7.1,9.7c0,6.5,5.7,8.5,10.6,9.2
	c8.3,1.1,10.6,1.2,19.7,2.7c14.5,2.3,25.2,11.5,25.2,26C1250.1,108.6,1246.9,115.1,1242.2,119.9z"/>
<path d="M5.4,305.6V180h23.2v125.6H5.4z"/>
<path d="M113.5,305.6v-56.5c0-10.8-3.5-17.4-15.2-17.4c-7.8,0-12.9,5-15.9,11.7c-3.2,7.3-3,16.8-3,24.6v37.6H57.2v-92.1h18.6
	l1.6,11.9c5.5-9.7,16.5-14.2,27.1-14.2c19.7,0,31.2,13.8,31.2,33v61.5L113.5,305.6z"/>
<path d="M221.6,305.6l-1.4-10.1c-5.5,8.5-15.8,12.2-25.9,12.2c-8.2,0.1-16.1-2.7-22.5-7.8c-11-9-16.3-22.9-16.3-40.2
	c0-18.1,5.5-32.1,16.5-41.1c5.7-4.6,13.1-7.4,22.5-7.4c11.7,0,20.2,3.9,24.1,8.7v-42.2h22.1v127.9H221.6z M198.7,229.8
	c-5.8-0.1-11.4,2.6-14.9,7.3c-4.6,6-5.9,14.3-5.9,22.3s1.2,16.5,5.9,22.5c3.5,4.7,9,7.4,14.9,7.3c17.4,0,20.9-16.5,20.9-29.8
	S216.1,229.8,198.7,229.8L198.7,229.8z"/>
<path d="M268,200.8v-22.9h23.7v22.9H268z M268.6,305.6v-92.1h22.5v92.1L268.6,305.6z"/>
<path d="M386.3,293.1c-7.8,9.3-19.4,14.7-31.5,14.5c-14,0-25.7-6.7-32.1-14.5c-6.9-8.7-10.1-20.2-10.1-33.7s3.2-25,10.1-33.7
	c6.4-7.8,18.1-14.5,32.1-14.5c12.2-0.2,23.8,5.2,31.5,14.5c4.3,5.8,6.8,12.8,7.1,20h-21.8c-0.2-3-1.1-5.9-2.7-8.5
	c-2.7-4.1-7.4-6.9-14.2-6.9c-5.1-0.1-10,2-13.5,5.7c-5.3,5.9-6.2,14.7-6.2,23.4s0.9,17.4,6.2,23.2c3.5,3.8,8.3,5.9,13.5,5.9
	c6.7,0,11.5-2.8,14.2-6.9c1.6-2.6,2.5-5.5,2.7-8.5h21.8C393.1,280.3,390.7,287.3,386.3,293.1z"/>
<path d="M490.8,266.5h-61.6c-0.2,7.1,2.3,13.8,6.7,18.1c3.6,3.6,8.5,5.6,13.6,5.7c6.4,0,10.3-1.2,13.5-4.4c2.2-2.1,3.7-4.8,4.4-7.8
	h21.3c-0.5,5.5-4.2,12.8-7.8,17c-7.8,9.2-19.3,12.9-31,12.9c-12.6,0-21.8-4.4-29-11.3c-9.2-8.9-14.2-21.8-14.2-36.8
	c0-14.7,4.4-27.8,13.3-36.9c6.9-7.1,16.8-11.7,29.4-11.7c13.6,0,26,5.5,33.7,17c6.7,10.1,8.3,20.6,8,32.1
	C491,260.3,490.8,264.6,490.8,266.5z M463.2,234.2c-3-3.2-7.6-5.3-14-5.3c-6.7,0-12.2,2.8-15.4,7.1c-3.2,4.1-4.6,8.3-4.8,14.4h39.9
	C468.6,243.5,466.7,238.1,463.2,234.2L463.2,234.2z"/>
<path d="M575.3,297.3c-7.4,7.4-19,10.6-31.5,10.6c-11.7,0-22.1-3.4-29.8-10.6c-5.3-5.1-9.7-12.8-9.7-21.4H525
	c0.1,4.1,1.9,8.1,5,10.8c3.5,2.8,7.6,4.1,14,4.1c7.4,0,18.8-1.6,18.8-11.7c0-5.3-3.5-8.9-9.2-9.7c-8.2-1.2-17.4-1.8-25.5-3.5
	c-12.6-2.7-21.1-12.9-21.1-24.6c-0.2-8,3.3-15.6,9.4-20.7c6.7-5.9,16.5-9.2,28-9.2c11,0,22.1,3.5,28.9,10.8c5,5.3,8.2,12.2,8.2,19
	h-21.2c-0.1-3.3-1.4-6.4-3.7-8.7c-2.7-2.7-7.4-4.2-12-4.2c-3.2,0-6.2,0-9.6,1.4c-3.9,1.6-7.1,5-7.1,9.7c0,6.6,5.7,8.5,10.6,9.2
	c8.3,1.1,10.6,1.2,19.7,2.7c14.5,2.3,25.2,11.5,25.2,26C583.3,286,580.1,292.6,575.3,297.3z"/>
<path d="M44.3,488.9l-4-11.8H15.9l-4,11.8H0.6l21.5-61.5h12.2L56,488.9H44.3z M28.1,441.2l-8.8,25.9h17.5L28.1,441.2z"/>
<path d="M121.9,482.4c-4.1,4.2-10.3,6.6-17.3,6.6H80.7v-61.5h23.9c7,0,13.2,2.3,17.3,6.6c6.3,6.5,7.2,15.6,7.2,24.1
	S128.2,475.9,121.9,482.4z M113.3,441c-2.3-2.3-5.4-3.5-8.7-3.4H91.9v41.4h12.7c3.2,0,6.4-1.2,8.7-3.5c4.3-4.3,4.4-11.6,4.4-17.3
	S117.7,445.3,113.3,441z"/>
<path d="M139.4,437.6v-11.1H151v11.1H139.4z M139.8,488.9v-45h11v45.1L139.8,488.9z"/>
<path d="M185.9,488.9h-11.5l-16.7-45.1h11.4l11.3,31.7l10.7-31.7h11.2L185.9,488.9z"/>
<path d="M208.8,437.6v-11.1h11.6v11.1H208.8z M209.2,488.9v-45h11v45.1L209.2,488.9z"/>
<path d="M264.9,484.9c-3.6,3.6-9.3,5.2-15.4,5.2c-5.7,0-10.8-1.6-14.6-5.2c-2.9-2.7-4.7-6.5-4.8-10.5h10.1c0,2,0.9,3.9,2.4,5.3
	c1.7,1.4,3.7,2,6.8,2c3.6,0,9.2-0.8,9.2-5.7c0-2.6-1.7-4.3-4.5-4.8c-4-0.6-8.5-0.9-12.5-1.7c-6.2-1.3-10.3-6.3-10.3-12
	c-0.1-3.9,1.6-7.6,4.6-10.1c3.3-2.9,8.1-4.5,13.7-4.5c5.4,0,10.8,1.7,14.1,5.3c2.4,2.5,3.9,5.8,4,9.3h-10.3c0-1.6-0.7-3.1-1.8-4.2
	c-1.6-1.4-3.7-2.1-5.9-2.1c-1.6-0.1-3.2,0.1-4.7,0.7c-2,0.7-3.4,2.6-3.5,4.8c0,3.2,2.8,4.2,5.2,4.5c4.1,0.5,5.2,0.6,9.6,1.3
	c7.1,1.1,12.3,5.6,12.3,12.8C268.9,478.7,267.5,482.2,264.9,484.9z"/>
<path d="M278.8,437.6v-11.1h11.6v11.1H278.8z M279.1,488.9v-45h11v45.1L279.1,488.9z"/>
<path d="M337.5,483c-7.9,8.7-21.3,9.4-30,1.6c-0.5-0.5-1.1-1-1.6-1.6c-3.4-4.2-5.3-9-5.3-16.6s1.9-12.4,5.3-16.6
	c7.9-8.7,21.3-9.4,30-1.6c0.5,0.5,1.1,1,1.6,1.6c3.4,4.2,5.3,9,5.3,16.6S340.9,478.8,337.5,483z M328.6,455
	c-3.7-3.8-9.8-3.8-13.6-0.1c0,0-0.1,0.1-0.1,0.1c-2.6,2.9-3.2,7.1-3.2,11.4s0.6,8.5,3.2,11.4c3.7,3.8,9.8,3.8,13.6,0.1
	c0,0,0.1-0.1,0.1-0.1c2.6-2.9,3.2-7.1,3.2-11.4S331.2,457.9,328.6,455L328.6,455z"/>
<path d="M380.8,488.9v-27.7c0-5.3-1.7-8.5-7.5-8.5c-3.8,0-6.3,2.4-7.8,5.7c-1.6,3.6-1.5,8.2-1.5,12v18.4h-10.8v-45.1h9.1l0.8,5.8
	c2.7-4.8,8.1-6.9,13.3-6.9c9.6,0,15.3,6.8,15.3,16.1v30.1H380.8z"/>
<path d="M458.9,483c-7.9,8.7-21.3,9.4-30,1.6c-0.5-0.5-1.1-1-1.6-1.6c-3.4-4.2-5.3-9-5.3-16.6s1.9-12.4,5.3-16.6
	c7.9-8.7,21.3-9.4,30-1.6c0.5,0.5,1.1,1,1.6,1.6c3.4,4.2,5.3,9,5.3,16.6S462.3,478.8,458.9,483z M450,455c-3.7-3.8-9.8-3.8-13.6-0.1
	c0,0-0.1,0.1-0.1,0.1c-2.6,2.9-3.2,7.1-3.2,11.4s0.6,8.5,3.2,11.4c3.7,3.8,9.8,3.8,13.6,0.1c0,0,0.1-0.1,0.1-0.1
	c2.6-2.9,3.2-7.1,3.2-11.4S452.6,457.9,450,455L450,455z"/>
<path d="M493.2,434.2c-3.9,0-5.9,2.2-5.9,5.5v4.2h12.1v8.9h-12.1v36.2h-10.8v-36.1h-7.6v-8.9h7.6v-4.3c0-8.3,5.6-14.2,15.4-14.2
	c2.9,0,5.7,0.3,8.5,1v8.7C498,434.5,495.6,434.2,493.2,434.2z"/>
<path class="st0" d="M571.7,485.5c-4.7,4.7-11.9,6.6-19.4,6.6c-6.5,0-13.3-1.7-18.4-6.3c-4-3.7-6.4-8.9-6.4-14.3h11.5
	c0,2.8,1.2,5.5,3.2,7.5c2.6,2.6,6.8,3.3,10.3,3.3c4.2,0,8.3-0.9,10.7-3.3c1.6-1.5,2.5-3.7,2.4-5.9c0-4.5-3.5-6.6-7.3-7.3
	c-4.2-0.8-9.5-1-13.6-1.6c-8.5-1.4-15.6-6.9-15.6-17.2c0.1-4.6,2-9,5.4-12.1c4.1-4,10.8-6.5,18-6.5c6.6,0,13,2.1,17.2,6
	c3.6,3.5,6.2,8,6.2,13.1h-11.4c-0.2-2.3-1.1-4.4-2.7-6.1c-2-2.1-6.1-3.3-9.4-3.3c-3.5,0-7.5,0.8-10,3.4c-1.4,1.4-2.1,3.3-2.1,5.2
	c0,4,2.6,6.1,6.2,6.7c3.9,0.6,9.4,1,13.3,1.6c9.2,1.3,16.9,7.3,16.9,17.8C576.9,477.4,575.1,482.1,571.7,485.5z"/>
<path class="st0" d="M627.6,491l-4.3-4.9c-4.8,4.2-11,6.5-17.4,6.4c-10.9,0-20.4-7.1-20.4-18.6c0-7.6,4.4-12.9,10.9-16.9
	c-3.9-4.2-6.6-7.6-6.6-13.4c0-9.7,7.5-15.5,16.8-15.5c8.9,0,17,5.5,17,15.2c0,8-4.9,12.6-11.6,16.5l10.7,11.6c1-1.9,1.4-4.7,1.6-7.5
	s0.2-5.6,0.2-7.5h15.9v8.6h-7.1c-0.3,4.8-1.1,9.7-3.7,13.8c3.9,4.2,7.5,8.2,11.4,12.3L627.6,491z M602.7,463.8
	c-4.1,2.4-7.3,4.5-7.3,9.7c0,6.3,5.2,9.6,11,9.6c3.6,0,7.6-0.9,10.3-3.8C611.9,474.1,607.4,469,602.7,463.8z M606.6,437.1
	c-3.6,0-6.8,2.2-6.8,6.4c0,4,3.3,6.9,5.8,9.5c3.8-2.1,7.9-4.1,7.9-9.2C613.4,439.5,610.5,437.1,606.6,437.1L606.6,437.1z"/>
<path class="st0" d="M675.3,468.9h-13v22h-11.1v-61.5h24.1c14.1,0,21.7,7.9,21.7,19.7S689.5,468.9,675.3,468.9z M674.9,439.2h-12.6
	v19.9h12.6c7.5,0,10.8-4,10.8-9.9S682.4,439.2,674.9,439.2L674.9,439.2z"/>
<path class="st0" d="M756.8,488.9l-1.3-6.8c-1.8,3.6-7.7,7.8-15.4,7.9c-7.1,0.1-13.4-1.7-18.3-6.9c-6.4-6.7-8-14.9-8-25
	s1.3-18,8-24.7c4.9-4.7,11.5-7.2,18.3-7.2c7.5,0,14,2.8,18.2,7c3.4,3.3,5.4,7.7,5.6,12.4h-11.4c-0.2-2.1-1.2-4.1-2.7-5.6
	c-2.2-2.5-5.5-3.7-9.8-3.7c-3.8,0-7.4,1.6-10.1,4.2c-4.2,4.4-4.8,12-4.8,17.7s0.6,13.5,4.9,18c2.4,2.6,6.4,3.9,10,3.9
	c3.4,0.1,6.8-1.2,9.2-3.6c3.3-3.5,4-7.3,4-12h-14.7v-9.3H764v33.6L756.8,488.9z"/>
<path class="st0" d="M788.3,489.5c-7.4,0-12.3-3.6-12.3-12.1v-51.1h10.9v49.2c0,2.6,0.6,4.3,4.3,4.3c1,0,1.2-0.1,1.8-0.1v9.1
	C791.5,489.3,789.9,489.5,788.3,489.5z"/>
<path class="st0" d="M835.7,483c-7.9,8.7-21.3,9.4-30,1.6c-0.5-0.5-1.1-1-1.6-1.6c-3.4-4.2-5.3-9-5.3-16.6s1.9-12.4,5.3-16.6
	c7.9-8.7,21.3-9.4,30-1.6c0.5,0.5,1.1,1,1.6,1.6c3.4,4.2,5.3,9,5.3,16.6S839.1,478.8,835.7,483z M826.8,455
	c-3.7-3.8-9.8-3.8-13.6-0.1c0,0-0.1,0.1-0.1,0.1c-2.6,2.9-3.2,7.1-3.2,11.4s0.6,8.5,3.2,11.4c3.7,3.8,9.8,3.8,13.6,0.1
	c0,0,0.1-0.1,0.1-0.1c2.6-2.9,3.2-7.1,3.2-11.4S829.4,457.9,826.8,455L826.8,455z"/>
<path class="st0" d="M885.1,486.2c-3.1,2.5-7,3.9-10.9,3.8c-4.9,0-10-1.8-12.7-6l-0.7,4.9h-9.4v-62.6h10.8v20.8
	c2.1-2.5,6.4-4.4,11.8-4.4c4-0.1,7.9,1.2,11,3.6c5.4,4.4,8.1,11.3,8.1,20.1C893.1,475,890.4,481.7,885.1,486.2z M879.2,455.4
	c-1.7-2.3-4.4-3.6-7.3-3.6c-8.5,0-10.2,8-10.2,14.5c0,4.4,0.8,9.5,3.9,12.3c4,3.4,10.1,2.9,13.5-1.1c0,0,0.1-0.1,0.1-0.2
	c2.2-3,2.9-7.1,2.9-11S881.5,458.3,879.2,455.4L879.2,455.4z"/>
<path class="st0" d="M937.4,489.6c-4.7,0-7.3-3-7.6-6.3c-2.1,3.6-7.3,6.8-13.7,6.8c-10.8,0-16.3-6.8-16.3-14.1
	c0-8.6,6.7-13.5,15.3-14.1l13.3-1V458c0-4.2-1.5-7.1-7.6-7.1c-5,0-8,2.2-8.2,6.4H902c0.6-10.1,8.7-14.6,18.7-14.6
	c7.7,0,14.3,2.4,16.9,9.2c1,2.9,1.4,6,1.3,9.1v16.7c0,2.1,0.7,2.9,2.5,2.9c0.5,0,0.9-0.1,1.4-0.2v8
	C941.1,489.3,939.3,489.7,937.4,489.6z M928.3,468.9l-11.5,0.9c-3.3,0.3-6.5,2.2-6.5,5.9c0,3.5,3,5.6,6.4,5.6
	c6.8,0,11.5-3.6,11.5-10.3V468.9z"/>
<path class="st0" d="M964.3,489.5c-7.4,0-12.3-3.6-12.3-12.1v-51.1h10.9v49.2c0,2.6,0.6,4.3,4.3,4.3c1,0,1.2-0.1,1.8-0.1v9.1
	C967.5,489.3,965.9,489.5,964.3,489.5z"/>
<rect x="527.3" y="398.3" width="434.6" height="10.4"/>
</svg>
