<?xml version="1.0" encoding="UTF-8" standalone="no"?>
<!-- Created with Inkscape (http://www.inkscape.org/) -->

<svg
   xmlns:dc="http://purl.org/dc/elements/1.1/"
   xmlns:cc="http://creativecommons.org/ns#"
   xmlns:rdf="http://www.w3.org/1999/02/22-rdf-syntax-ns#"
   xmlns:svg="http://www.w3.org/2000/svg"
   xmlns="http://www.w3.org/2000/svg"
   xmlns:sodipodi="http://sodipodi.sourceforge.net/DTD/sodipodi-0.dtd"
   xmlns:inkscape="http://www.inkscape.org/namespaces/inkscape"
   id="svg4136"
   version="1.1"
   inkscape:version="0.91 r13725"
   width="513.14191"
   height="165.25246"
   viewBox="0 0 513.14192 165.25246"
   sodipodi:docname="Euronext logo.svg">
  <metadata
     id="metadata4142">
    <rdf:RDF>
      <cc:Work
         rdf:about="">
        <dc:format>image/svg+xml</dc:format>
        <dc:type
           rdf:resource="http://purl.org/dc/dcmitype/StillImage" />
        <dc:title></dc:title>
      </cc:Work>
    </rdf:RDF>
  </metadata>
  <defs
     id="defs4140" />
  <sodipodi:namedview
     pagecolor="#ffffff"
     bordercolor="#666666"
     borderopacity="1"
     objecttolerance="10"
     gridtolerance="10"
     guidetolerance="10"
     inkscape:pageopacity="0"
     inkscape:pageshadow="2"
     inkscape:window-width="640"
     inkscape:window-height="480"
     id="namedview4138"
     showgrid="false"
     fit-margin-bottom="5"
     fit-margin-left="5"
     fit-margin-top="5"
     fit-margin-right="5"
     inkscape:current-layer="svg4136" />
  <path
     inkscape:connector-curvature="0"
     d="m 168.57399,58.130787 0.75972,-0.76506 27.97543,0 0.76506,0.76506 0,6.810618 -0.76506,0.759708 -18.02434,0 -0.46009,0.465456 0,12.091121 0.46009,0.454754 15.38141,0 0.76506,0.759707 0,6.355868 -0.76506,0.759705 -15.38141,0 -0.46009,0.465452 0,13.391184 0.46009,0.45476 18.6717,0 0.7597,0.76506 0,6.96577 -0.7597,0.76506 -28.62279,0 -0.75972,-0.76506 z m 75.81028,39.552952 c 0,8.260481 -7.57569,12.470971 -18.6717,12.470971 -12.62077,0 -18.51119,-4.21049 -18.51119,-12.470971 l 0,-39.552952 0.76506,-0.76506 8.64569,0 0.76505,0.76506 0,36.567618 c 0,5.970665 3.90019,6.885525 8.49055,6.885525 4.59034,0 8.41564,-0.91486 8.41564,-6.960425 l 0,-36.492718 0.76505,-0.76506 8.57079,0 0.76506,0.76506 z m 27.46181,-6.500315 c -0.60991,-1.150264 -0.76504,-1.385668 -1.2198,-1.455218 l -5.81018,0 -0.6099,0.535006 0,18.361388 -0.76504,0.76506 -8.64569,0 -0.75972,-0.76506 0,-50.493813 0.75972,-0.76506 15.98061,0 c 11.62567,0 17.52143,3.900193 17.52143,14.380947 0,6.880171 -1.45521,11.015762 -6.73573,14.075992 -0.53499,0.460106 -0.76505,0.759708 -0.76505,1.075362 0,0.76506 0.37986,1.599668 1.22517,2.97998 l 10.17578,18.746592 c 0.23007,0.37985 0.23007,0.76506 -0.37985,0.76506 l -10.1758,0 c -0.46544,0 -0.69015,-0.14979 -0.9202,-0.69016 z m 5.81551,-17.751483 c 0,-6.885521 -1.83505,-8.645691 -8.72059,-8.645691 l -3.73968,0 c -0.83995,0 -0.99512,0.149782 -0.99512,0.454757 l 0,16.986426 0.53502,0.615255 4.19978,0 c 6.57522,0 8.72059,-2.605479 8.72059,-9.410747 m 54.00878,31.902369 c -3.21003,3.82529 -7.87529,4.8204 -15.30115,4.8204 -7.41518,0 -11.85573,-0.99511 -15.14599,-4.8204 -3.29028,-3.98044 -5.12537,-12.24092 -5.12537,-21.956619 0,-9.715699 1.83509,-17.981532 5.12537,-21.956625 3.29026,-3.825285 7.95552,-4.820397 15.37606,-4.820397 7.42586,0 11.86105,0.995112 15.07108,4.820397 3.37055,3.975093 5.21095,12.240926 5.21095,21.956625 0,9.715699 -1.8404,17.976179 -5.21095,21.956619 m -22.49162,-5.505201 c 1.22514,1.679911 3.3652,1.909971 7.2707,1.909971 4.05537,0 6.12046,-0.23007 7.34563,-1.909971 1.67992,-2.370075 2.44497,-9.180694 2.44497,-16.451418 0,-7.345624 -0.76505,-14.075989 -2.44497,-16.446064 -1.22517,-1.69062 -3.29026,-1.915322 -7.19579,-1.915322 -4.05534,0 -6.1954,0.224717 -7.42054,1.915322 -1.67992,2.370075 -2.44497,9.10044 -2.44497,16.446064 0,7.270724 0.76505,14.081343 2.44497,16.451418 m 61.36515,9.560551 c -0.61527,0 -0.84534,-0.30496 -1.07006,-0.92021 L 355.62257,70.981616 c -0.39058,-1.000459 -0.60986,-1.530115 -1.07,-1.530115 -0.45478,0 -0.53501,0.149782 -0.53501,1.455215 l -0.0118,37.717884 -0.76506,0.76506 -7.33495,0 -0.76505,-0.76506 0,-50.493813 0.76505,-0.76506 13.08089,0 c 0.54034,0 0.77041,0.385203 1.00045,0.914863 l 13.00599,36.187763 c 0.3852,1.150264 0.52966,1.225164 0.91486,1.225164 0.37985,0 0.53502,-0.155164 0.53502,-0.76506 l 0.0118,-36.79767 0.76509,-0.76506 7.56496,0 0.76506,0.76506 0,50.493813 -0.76506,0.76506 z m 22.49159,-51.258873 0.76508,-0.76506 27.97005,0 0.77044,0.76506 0,6.805269 -0.77044,0.765057 -18.01899,0 -0.46011,0.460103 0,12.085772 0.46011,0.465456 15.37606,0 0.77044,0.759707 0,6.350515 -0.77044,0.759708 -15.37606,0 -0.46011,0.465456 0,13.39118 0.46011,0.46011 18.66638,0 0.76505,0.76506 0,6.96042 -0.76505,0.76506 -28.61744,0 -0.76508,-0.76506 z M 469.90506,108.432 454.25082,81.590774 467.72224,58.28059 c 0.19784,-0.411955 -0.14431,-0.925562 -0.73829,-0.925562 l -8.84901,0 c -0.49754,0 -0.94159,0.240774 -1.27865,0.925562 l -8.06787,14.043889 -8.24976,-14.022491 c -0.36382,-0.652708 -0.83464,-0.94696 -1.58899,-0.94696 l -8.97205,0 c -0.59919,0 -0.85064,0.460106 -0.61524,0.963012 l 13.43936,23.203184 -15.10326,26.926826 c -0.25136,0.48685 -0.0148,0.94696 0.50826,0.94696 l 9.15395,0 c 0.64735,0 0.96836,-0.24078 1.35359,-0.92556 l 9.67826,-17.366281 10.25069,17.344881 c 0.46011,0.76505 0.81322,0.94696 1.391,0.94696 l 9.29306,0 c 0.59918,0 0.83463,-0.49221 0.5778,-0.96301 m 15.16743,-42.260084 -0.45479,-0.454754 -11.68451,0 -0.7597,-0.770404 0,-6.815971 0.7597,-0.76506 34.44899,0 0.7597,0.76506 0,6.815971 -0.7597,0.770404 -11.67383,0 -0.45473,0.454754 0,42.452684 -0.76509,0.76506 -8.64566,0 -0.77041,-0.76506 z"
     style="fill:#00897e;fill-opacity:1;fill-rule:nonzero;stroke:none"
     id="path15747"
     sodipodi:nodetypes="cccccccccccccccccccccccccsssccccsssccccsccccccccccsscsccsscccsssccsccscscscsccscscscscsccscccccccsccscccccccsccccccccccccccccccccccccccccsscccsscccsscccsscccccccccccccccccc" />
  <g
     id="g4248"
     transform="matrix(1.8988568,0,0,1.8889783,-59.500425,42.253372)">
    <path
       inkscape:connector-curvature="0"
       d="m 33.96803,7.81468 7.51369,0 0,21.49305 -7.51369,0 0,-21.49305 z"
       style="fill:#99def9;fill-opacity:1;fill-rule:nonzero;stroke:none"
       id="path15749" />
    <path
       inkscape:connector-curvature="0"
       d="m 41.48172,46.37483 -7.51369,0 0,-17.06991 7.51369,0 0,17.06991 z"
       style="fill:#59caf5;fill-opacity:1;fill-rule:nonzero;stroke:none"
       id="path15751" />
    <path
       inkscape:connector-curvature="0"
       d="m 41.48172,-8.22974 7.6292,0 0,23.81167 -7.6292,0 0,-23.81167 z"
       style="fill:#66cef5;fill-opacity:1;fill-rule:nonzero;stroke:none"
       id="path15753" />
    <path
       inkscape:connector-curvature="0"
       d="m 41.48172,15.57912 7.6292,0 0,27.29946 -7.6292,0 0,-27.29946 z"
       style="fill:#00adef;fill-opacity:1;fill-rule:nonzero;stroke:none"
       id="path15755" />
    <path
       inkscape:connector-curvature="0"
       d="m 56.66406,21.42216 -7.55314,0 0,-25.68235 7.55314,0 0,25.68235 z"
       style="fill:#57c6bb;fill-opacity:1;fill-rule:nonzero;stroke:none"
       id="path15757" />
    <path
       inkscape:connector-curvature="0"
       d="m 56.66406,51.48257 -7.55314,0 0,-30.06323 7.55314,0 0,30.06323 z"
       style="fill:#33aba4;fill-opacity:1;fill-rule:nonzero;stroke:none"
       id="path15759" />
    <path
       inkscape:connector-curvature="0"
       d="m 56.66406,-19.72144 11.51986,0 0,27.3699 -11.51986,0 0,-27.3699 z"
       style="fill:#8cd8c9;fill-opacity:1;fill-rule:nonzero;stroke:none"
       id="path15761" />
    <path
       inkscape:connector-curvature="0"
       d="m 68.18392,57.72566 -11.51986,0 0,-50.0772 11.51986,0 0,50.0772 z"
       style="fill:#038f90;fill-opacity:1;fill-rule:nonzero;stroke:none"
       id="path15763" />
    <path
       inkscape:connector-curvature="0"
       d="m 68.18392,-6.20693 7.57004,0 0,35.41606 -7.57004,0 0,-35.41606 z"
       style="fill:#12ab4a;fill-opacity:1;fill-rule:nonzero;stroke:none"
       id="path15765" />
    <path
       inkscape:connector-curvature="0"
       d="m 75.75396,62.46715 -7.57004,0 0,-33.25802 7.57004,0 0,33.25802 z"
       style="fill:#005f5f;fill-opacity:1;fill-rule:nonzero;stroke:none"
       id="path15767" />
    <path
       inkscape:connector-curvature="0"
       d="m 75.75396,-13.02475 11.5086,0 0,31.30846 -11.5086,0 0,-31.30846 z"
       style="fill:#73c128;fill-opacity:1;fill-rule:nonzero;stroke:none"
       id="path15769" />
    <path
       inkscape:connector-curvature="0"
       d="m 87.26538,52.20661 -11.5086,0 0,-33.92009 11.5086,0 0,33.92009 z"
       style="fill:#007c6f;fill-opacity:1;fill-rule:nonzero;stroke:none"
       id="path15771" />
    <path
       inkscape:connector-curvature="0"
       d="m 94.84105,24.79726 -7.57285,0 0,-16.99384 7.57285,0 0,16.99384 z"
       style="fill:#a3d952;fill-opacity:1;fill-rule:nonzero;stroke:none"
       id="path15773" />
    <path
       inkscape:connector-curvature="0"
       d="m 94.84105,42.87577 -7.57285,0 0,-18.07851 7.57285,0 0,18.07851 z"
       style="fill:#11a447;fill-opacity:1;fill-rule:nonzero;stroke:none"
       id="path15775" />
    <path
       inkscape:connector-curvature="0"
       d="m 102.40546,18.28652 -7.56723,0 0,-15.51477 7.56723,0 0,15.51477 z"
       style="fill:#bde593;fill-opacity:1;fill-rule:nonzero;stroke:none"
       id="path15777" />
    <path
       inkscape:connector-curvature="0"
       d="m 102.40546,36.30305 -7.56723,0 0,-18.01653 7.56723,0 0,18.01653 z"
       style="fill:#6bc74a;fill-opacity:1;fill-rule:nonzero;stroke:none"
       id="path15779" />
  </g>
</svg>
