<?xml version="1.0" encoding="utf-8"?>
<!-- Generator: Adobe Illustrator 26.1.0, SVG Export Plug-In . SVG Version: 6.00 Build 0)  -->
<svg version="1.1" id="Calque_1" xmlns="http://www.w3.org/2000/svg" xmlns:xlink="http://www.w3.org/1999/xlink" x="0px" y="0px"
	 viewBox="0 0 595.28 36.48" style="enable-background:new 0 0 595.28 36.48;" xml:space="preserve">
<style type="text/css">
	.st0{fill:#E41B13;}
	.st1{fill:#0072CE;}
	.st2{fill:#A2A2A1;}
</style>
<path class="st0" d="M60.6,0.69L40.41,35.68H0L20.19,0.69H60.6z"/>
<path class="st1" d="M107.21,0.69L87.02,35.68H46.63L66.82,0.69H107.21z M159.3,0.71h8.66l14.42,23.5V0.71h7.15V35.7h-8.66
	l-14.48-23.84V35.7h-7.09C159.3,35.7,159.3,0.71,159.3,0.71z M199.98,23.5c0.33,4.55,2.49,6.82,6.51,6.82c1.78,0,3.13-0.47,4.07-1.4
	c0.4-0.4,0.82-1.13,1.24-2.22l6.93,0.27c-1.22,6.22-5.22,9.31-11.97,9.31c-4.2,0-7.51-1.29-10-3.87c-2.47-2.58-3.71-6.06-3.71-10.49
	c0-4.29,1.2-7.73,3.58-10.31c2.38-2.58,5.55-3.87,9.53-3.87c4,0,7.18,1.29,9.49,3.91c2.31,2.6,3.47,6.18,3.47,10.73
	c0,0.44-0.02,0.82-0.04,1.13h-19.08V23.5z M200.29,18.31h11.6c-0.53-3.29-2.47-4.93-5.73-4.93c-3.18,0-5.13,1.62-5.84,4.87v0.07
	H200.29z M223.86,0.33h6.78v8.29h5.8v5.42h-5.8v13.44c0,1.22,0.2,2,0.58,2.31c0.38,0.31,1.95,0.47,4.73,0.47h0.44v5.73l-1.95,0.04
	c-1.29,0.04-2.09,0.04-2.38,0.04c-0.98,0-1.78-0.02-2.38-0.04c-2.2-0.16-3.78-0.82-4.71-2c-0.42-0.58-0.73-1.31-0.87-2.18
	c-0.16-0.87-0.22-2.93-0.22-6.2V14.02h-3.84v-5.4h3.84V0.33H223.86z M244.43,8.62l4.4,18.57l4.11-18.57h7.09l4.22,18.46l4.38-18.46
	h7.53l-8.02,27.08h-7.53l-4.11-18.26l-4.07,18.26h-7.58l-7.91-27.08C236.95,8.62,244.43,8.62,244.43,8.62z M290.04,7.84
	c3.98,0,7.18,1.29,9.64,3.87c2.44,2.58,3.69,5.98,3.69,10.15c0,4.38-1.18,7.84-3.55,10.42c-2.35,2.58-5.58,3.87-9.62,3.87
	s-7.26-1.27-9.66-3.8c-2.4-2.53-3.6-5.93-3.6-10.24c0-4.29,1.2-7.75,3.6-10.37C282.93,9.15,286.11,7.84,290.04,7.84z M290.15,13.53
	c-2.07,0-3.69,0.78-4.91,2.35c-1.2,1.58-1.82,3.69-1.82,6.35c0,2.53,0.62,4.53,1.84,6.04c1.22,1.49,2.84,2.24,4.87,2.24
	s3.62-0.76,4.8-2.24c1.18-1.49,1.75-3.55,1.75-6.2c0-2.6-0.6-4.67-1.78-6.22C293.73,14.31,292.13,13.53,290.15,13.53z M306.5,8.62
	h6.6v3.35c0.82-1.4,1.78-2.38,2.82-2.89c1.04-0.53,2.53-0.78,4.44-0.78c0.51,0,1.07,0.02,1.69,0.04v6.4h-1.36
	c-2.38,0-4.11,0.42-5.2,1.29c-0.93,0.76-1.53,1.69-1.78,2.75c-0.24,1.09-0.38,2.69-0.38,4.82V35.7h-6.82V8.62H306.5z M324.54,0h6.82
	v19.22l8.82-10.62h8.51l-9.86,11.22l11.71,15.86h-8.24l-7.86-10.93l-3.09,3.69v7.26h-6.82V0H324.54z"/>
<path class="st1" d="M376.48,36.48c-4.32,0-7.87-1.11-10.56-3.31c-2.72-2.22-4.16-5.26-4.3-9.02l-0.03-0.8h8.62l0.05,0.73
	c0.1,1.57,0.67,2.73,1.74,3.56c1.14,0.88,2.71,1.33,4.68,1.33c1.77,0,3.12-0.33,4.11-1.02c0.91-0.61,1.35-1.41,1.35-2.44
	c0-0.43-0.11-0.81-0.34-1.15c-0.37-0.58-1.37-1.33-4.14-1.71c-4.3-0.58-7.03-1.12-8.58-1.68c-1.96-0.7-3.53-1.88-4.68-3.5
	c-1.15-1.61-1.74-3.48-1.74-5.56c0-3.29,1.25-5.96,3.73-7.96c2.41-1.94,5.65-2.93,9.64-2.93c4.22,0,7.65,1.03,10.19,3.06
	c2.54,2.02,3.92,4.86,4.09,8.43l0.04,0.8l-8.49,0.11l-0.05-0.73c-0.06-0.86-0.21-1.51-0.46-1.97c-0.82-1.58-2.56-2.35-5.33-2.35
	c-1.62,0-2.87,0.31-3.81,0.94c-0.84,0.56-1.23,1.26-1.23,2.22c0,0.85,0.32,1.2,0.56,1.38c0.44,0.34,1.59,0.81,4.57,1.18
	c5.51,0.67,9.16,1.79,11.13,3.44c2.25,1.89,3.39,4.43,3.39,7.55c0,3.51-1.31,6.33-3.89,8.37C384.21,35.46,380.76,36.48,376.48,36.48
	z M363.23,24.9c0.28,2.95,1.49,5.27,3.68,7.06c2.4,1.96,5.62,2.96,9.57,2.96c3.92,0,7.04-0.91,9.29-2.7
	c2.19-1.73,3.31-4.13,3.31-7.15c0-2.68-0.93-4.76-2.83-6.36c-1.71-1.43-5.19-2.47-10.32-3.09c-2.75-0.34-4.45-0.81-5.33-1.49
	c-0.78-0.6-1.17-1.48-1.17-2.62c0-1.48,0.65-2.66,1.92-3.51c1.2-0.81,2.73-1.2,4.67-1.2c3.36,0,5.62,1.07,6.71,3.17
	c0.27,0.5,0.46,1.12,0.56,1.86l5.41-0.07c-0.3-2.73-1.45-4.91-3.44-6.49c-2.26-1.8-5.37-2.72-9.22-2.72c-3.62,0-6.54,0.87-8.66,2.58
	c-2.12,1.71-3.15,3.92-3.15,6.75c0,1.74,0.49,3.31,1.45,4.66c0.96,1.36,2.29,2.35,3.94,2.94c1.43,0.52,4.13,1.04,8.26,1.6
	c2.74,0.37,4.46,1.16,5.24,2.4c0.39,0.58,0.59,1.25,0.59,1.99c0,1.56-0.7,2.85-2.03,3.73c-1.26,0.86-2.89,1.28-4.99,1.28
	c-2.32,0-4.21-0.56-5.63-1.65c-1.25-0.97-2.01-2.3-2.27-3.97H363.23z M565.02,36.32c-5.08,0-8.75-1.51-10.89-4.5
	c-0.87-1.19-1.48-2.97-1.83-5.3l-0.13-0.89h8.24l0.07,0.7c0.14,1.39,0.79,3.23,4.74,3.23c3.82,0,3.82-1.55,3.82-2.13
	c0-0.53-0.12-0.7-0.15-0.74l-0.14-0.23c-0.34-0.25-0.78-0.41-1.3-0.48c-0.39-0.05-1-0.13-1.84-0.23l-2.15-0.26
	c-4.09-0.49-6.78-1.41-8.2-2.82c-1.44-1.41-2.17-3.27-2.17-5.51c0-2.8,1.09-5.07,3.25-6.75c2.1-1.63,4.92-2.45,8.39-2.45
	c5.16,0,8.77,1.69,10.73,5.02c0.61,1.1,0.99,2.49,1.13,4.15l0.07,0.84h-7.91v-0.74c-0.17-1.17-0.8-2.7-4.13-2.7
	c-3.55,0-3.55,1.4-3.55,1.93c0,0.52,0.18,0.7,0.38,0.82c0.28,0.16,1.37,0.51,5.42,0.87c3.3,0.28,5.84,1.13,7.55,2.53
	c1.75,1.45,2.64,3.56,2.64,6.27c0,2.93-1.1,5.27-3.28,6.93C571.65,35.51,568.7,36.32,565.02,36.32z M553.99,27.19
	c0.31,1.63,0.78,2.88,1.4,3.72c1.84,2.56,5.08,3.86,9.63,3.86c3.34,0,5.97-0.71,7.82-2.11c1.79-1.37,2.67-3.23,2.67-5.69
	c0-2.25-0.68-3.91-2.07-5.07c-1.46-1.19-3.72-1.93-6.7-2.18c-4.41-0.4-5.55-0.77-6.08-1.08c-0.52-0.32-1.14-0.94-1.14-2.16
	c0-1.59,0.89-3.49,5.11-3.49c3.75,0,5.11,1.74,5.55,3.44h4.77c-0.16-1.07-0.44-1.96-0.83-2.66c-1.68-2.85-4.75-4.25-9.38-4.25
	c-3.11,0-5.61,0.72-7.43,2.12c-1.78,1.39-2.65,3.19-2.65,5.52c0,1.84,0.56,3.27,1.7,4.4c1.16,1.14,3.61,1.94,7.3,2.38l2.15,0.26
	c0.85,0.1,1.47,0.18,1.86,0.23c0.78,0.1,1.46,0.37,2.03,0.79c0.21,0.17,0.34,0.33,0.44,0.51c0.32,0.41,0.47,0.96,0.47,1.69
	c0,1.68-0.93,3.69-5.38,3.69c-4.28,0-5.75-2-6.17-3.93H553.99z M535.16,36.3c-3.19,0-5.78-0.8-7.69-2.38
	c-1.94-1.6-2.92-3.82-2.92-6.58c0-3.15,1.19-5.44,3.54-6.8c1.52-0.9,4.09-1.64,7.62-2.18l5.68-1.02c0.15-0.03,0.2-0.07,0.2-0.07
	c-0.07-1.23-0.46-2.77-3.53-2.77c-1.78,0-3.15,0.44-4.06,1.32c-0.19,0.18-0.53,0.69-0.68,2.03l-0.07,0.69h-7.67v-0.84
	c0.07-1.31,0.25-2.45,0.54-3.41c0.64-2.07,2.09-3.68,4.3-4.8c2.12-1.07,4.81-1.61,7.99-1.61c5.89,0,9.37,1.93,10.35,5.73
	c0.29,1.14,0.42,3.11,0.42,6.02v8.53c0,1.87,0.08,3.32,0.24,4.32c0.1,0.59,0.35,1.29,0.79,2.12l0.6,1.14h-8.87l-0.07-1.41
	C539.98,35.64,537.73,36.3,535.16,36.3z M538.05,12.95c4.37,0,5.02,2.78,5.02,4.44c0,0.44-0.18,1.21-1.36,1.47l-2.57,0.51
	l-3.18,0.52c-3.29,0.51-5.74,1.19-7.08,1.99c-1.87,1.08-2.77,2.87-2.77,5.46c0,2.31,0.77,4.07,2.36,5.38
	c1.63,1.34,3.88,2.02,6.7,2.02c2.79,0,5.03-0.83,6.87-2.55l1.22-1.14l0.16,3.13h4.89c-0.21-0.52-0.34-1-0.42-1.46
	c-0.17-1.08-0.25-2.62-0.25-4.57v-8.53c0-2.74-0.13-4.63-0.38-5.63c-0.79-3.07-3.69-4.56-8.84-4.56c-2.94,0-5.39,0.49-7.29,1.45
	c-1.85,0.94-3,2.2-3.52,3.87c-0.2,0.64-0.33,1.39-0.42,2.24h4.69c0.19-1.05,0.54-1.8,1.05-2.3
	C534.13,13.54,535.85,12.95,538.05,12.95z M432.37,36.21c-2.03,0-3.9-0.48-5.55-1.44c-1.78-1.03-3.05-2.51-3.76-4.37
	c-0.37-1.02-0.56-2.64-0.56-4.83V8.66h7.93v17.31c0,0.58,0.13,1.19,0.41,1.86c0.41,1.02,1.36,1.52,2.9,1.52
	c1.92,0,3.18-0.83,3.98-2.61c0.32-0.71,0.49-2.12,0.49-4.22V8.66h8v27.08h-7.76l-0.03-1.37C436.72,35.59,434.69,36.21,432.37,36.21z
	 M424.06,10.22v15.35c0,2.5,0.25,3.71,0.46,4.28c0.59,1.54,1.6,2.71,3.08,3.57c1.43,0.83,2.99,1.23,4.76,1.23
	c2.5,0,4.6-0.84,6.25-2.48l1.29-1.29l0.07,3.31h4.68V10.22h-4.89v12.31c0,2.38-0.2,3.93-0.62,4.86c-1.04,2.33-2.86,3.52-5.39,3.52
	c-2.77,0-3.89-1.35-4.35-2.49c-0.35-0.85-0.52-1.65-0.52-2.44V10.22H424.06z M406.11,36.19c-4,0-7.26-1.28-9.67-3.82
	c-2.4-2.51-3.61-5.94-3.61-10.18c0-4.23,1.21-7.7,3.6-10.3c2.4-2.61,5.61-3.94,9.55-3.94c3.94,0,7.19,1.31,9.65,3.89
	c2.44,2.58,3.68,5.98,3.68,10.11c0,4.32-1.2,7.8-3.56,10.35C413.35,34.88,410.11,36.19,406.11,36.19z M405.98,9.51
	c-3.53,0-6.28,1.13-8.4,3.44c-2.12,2.31-3.2,5.42-3.2,9.25c0,3.82,1.07,6.89,3.18,9.11c2.14,2.25,4.93,3.34,8.55,3.34
	c3.6,0,6.38-1.11,8.49-3.4c2.09-2.25,3.15-5.38,3.15-9.29c0-3.77-1.07-6.73-3.25-9.04C412.32,10.62,409.53,9.51,405.98,9.51z
	 M590.34,36.12L590.34,36.12c-0.92,0-1.69-0.02-2.28-0.05c-2.3-0.15-3.98-0.88-5.02-2.18c-0.51-0.71-0.84-1.51-0.98-2.4
	c-0.14-0.88-0.21-2.83-0.21-5.97v-10.2h-3.62V8.66h3.62V0.84h7.95v7.82h5.46v6.66h-5.46v11.89c0,1.31,0.25,1.58,0.25,1.58
	c0.05,0.02,0.69,0.26,3.97,0.26h1.18v6.96l-2.6,0.06C591.38,36.12,590.62,36.12,590.34,36.12z M579.79,13.77h3.62v11.75
	c0,3.01,0.07,4.94,0.19,5.72c0.11,0.66,0.33,1.22,0.69,1.71c0.73,0.91,2.04,1.45,3.86,1.56c0.55,0.02,1.3,0.05,2.19,0.05
	c0.26,0,1.01,0,2.22-0.05l1.09-0.03v-3.89c-3.37-0.02-4.2-0.31-4.58-0.62c-0.56-0.46-0.82-1.34-0.82-2.78V13.77h5.46v-3.56h-5.46
	V2.4h-4.84v7.82h-3.62V13.77z M460.63,36.12L460.63,36.12c-0.92,0-1.69-0.02-2.28-0.05c-2.3-0.15-3.98-0.88-5.02-2.18
	c-0.52-0.71-0.84-1.51-0.98-2.41c-0.14-0.87-0.21-2.77-0.21-5.97v-10.2h-3.62V8.66h3.62V0.84h7.95v7.82h5.46v6.66h-5.46v11.89
	c0,1.31,0.25,1.58,0.25,1.58c0.05,0.02,0.69,0.26,3.97,0.26h1.18v6.96l-2.6,0.06C461.67,36.12,460.9,36.12,460.63,36.12z
	 M450.08,13.77h3.62v11.75c0,3.02,0.07,4.95,0.19,5.72c0.11,0.66,0.33,1.22,0.68,1.71c0.73,0.91,2.04,1.45,3.86,1.57
	c0.55,0.02,1.3,0.05,2.19,0.05c0.26,0,1.01,0,2.21-0.05l1.1-0.03v-3.89c-3.54-0.02-4.22-0.33-4.58-0.62
	c-0.56-0.46-0.82-1.34-0.82-2.78V13.77h5.46v-3.56h-5.46V2.4h-4.84v7.82h-3.62V13.77z M492.46,35.77h-7.93l-0.05-15.84
	c-0.09-2.1-0.16-2.58-0.18-2.69c-0.07-0.47-0.2-0.81-0.44-1.15c-0.55-0.78-1.41-1.16-2.63-1.16c-0.89,0-1.73,0.26-2.5,0.78
	c-0.77,0.52-1.3,1.18-1.62,2c-0.19,0.47-0.41,1.58-0.41,4.16v13.91h-7.99l-0.03-35.23h8v9.33c1.67-1.17,3.67-1.76,5.96-1.76
	c3,0,5.44,0.94,7.24,2.79c0.94,0.97,1.63,2.12,2.03,3.42c0.36,1.26,0.54,3.27,0.54,6.01V35.77z M486.09,34.21h4.82V20.33
	c0-3.23-0.26-4.81-0.48-5.56c-0.33-1.05-0.88-1.99-1.65-2.78c-1.52-1.56-3.53-2.32-6.13-2.32c-2.54,0-4.56,0.79-6.18,2.42
	l-1.33,1.33V2.09h-4.89l0.02,32.12h4.89V21.86c0-2.3,0.17-3.85,0.52-4.73c0.44-1.12,1.16-2,2.2-2.71c1.02-0.69,2.18-1.05,3.37-1.05
	c1.72,0,3.07,0.63,3.9,1.82c0.38,0.54,0.61,1.12,0.69,1.77c0.05,0.17,0.11,0.72,0.21,2.94L486.09,34.21z M521.81,35.7h-24.88V1.2
	h24.37v7.26h-16.08v6h15.37v7.26h-15.37v6.71h16.6V35.7z M498.49,34.14h21.77v-4.15h-16.6v-9.82h15.37v-4.15h-15.37V6.91h16.08V2.76
	h-21.26V34.14z M536.34,31.28c-4.31,0-4.95-2.53-4.95-4.04c0-1.08,0.4-1.96,1.17-2.55c0.68-0.52,1.78-0.92,3.35-1.21l4.81-0.91
	c0.56-0.11,0.96-0.19,1.18-0.22c-0.03,0,0.12-0.06,0.33-0.06h0.68l0.09,0.67c0.03,0.21,0.05,0.46,0.05,0.77v1.02
	c0,1.33-0.13,2.26-0.42,2.91c-0.44,1.07-1.33,1.95-2.71,2.66C538.74,30.96,537.56,31.28,536.34,31.28z M541.49,23.99
	c-0.15,0.03-0.31,0.06-0.48,0.1L536.2,25c-1.64,0.31-2.37,0.67-2.69,0.92c-0.24,0.19-0.56,0.53-0.56,1.32c0,1.16,0.39,2.49,3.4,2.49
	c0.95,0,1.89-0.25,2.85-0.77c1.05-0.54,1.7-1.16,2-1.9c0.2-0.45,0.3-1.22,0.3-2.3V23.99z M406.07,30.88c-2.16,0-3.91-0.81-5.2-2.4
	c-1.26-1.53-1.91-3.61-1.91-6.18c0-2.66,0.63-4.84,1.87-6.47c1.28-1.68,3.04-2.53,5.24-2.53c2.1,0,3.82,0.84,5.1,2.5
	c1.23,1.59,1.85,3.72,1.85,6.34c0,2.68-0.6,4.74-1.83,6.32C409.95,30.07,408.23,30.88,406.07,30.88z M406.07,14.86
	c-1.71,0-3.02,0.63-4,1.92c-1.03,1.35-1.55,3.21-1.55,5.53c0,2.2,0.52,3.94,1.56,5.19c1,1.23,2.31,1.83,4,1.83
	c1.67,0,2.95-0.59,3.89-1.81c1.01-1.29,1.5-3.05,1.5-5.37c0-2.26-0.51-4.08-1.53-5.39C408.96,15.48,407.69,14.86,406.07,14.86z"/>
<path class="st2" d="M144.51,0.69l-20.19,34.99H93.24l20.19-34.99C113.43,0.69,144.51,0.69,144.51,0.69z"/>
</svg>
