<?xml version="1.0" encoding="utf-8"?>
<!-- Generator: Adobe Illustrator 23.0.0, SVG Export Plug-In . SVG Version: 6.00 Build 0)  -->
<svg version="1.1" id="Ebene_1" xmlns="http://www.w3.org/2000/svg" xmlns:xlink="http://www.w3.org/1999/xlink" x="0px" y="0px"
	 viewBox="0 0 368.02 102.05" style="enable-background:new 0 0 368.02 102.05;" xml:space="preserve">
<style type="text/css">
	.st0{fill:#E42313;}
</style>
<path class="st0" d="M93.7,14.59C101.18,5.67,112.4,0,124.94,0h27.98v20.41h-27.98c-6.27,0-11.88,2.83-15.62,7.29l-50.1,59.76
	c-7.48,8.92-18.69,14.58-31.24,14.58H0V81.64h27.98c6.27,0,11.87-2.83,15.62-7.29L93.7,14.59z"/>
<rect x="173.31" y="0" class="st0" width="21.41" height="102.05"/>
<path class="st0" d="M274.33,14.59l17.24,20.57l17.24-20.57C316.29,5.67,327.51,0,340.05,0h27.97v20.41h-27.97
	c-6.27,0-11.88,2.83-15.62,7.29l-19.56,23.32l19.56,23.32c3.74,4.46,9.34,7.29,15.62,7.29h27.97v20.41h-27.97
	c-12.54,0-23.76-5.66-31.24-14.58L291.57,66.9l-17.24,20.56c-7.48,8.92-18.7,14.58-31.24,14.58h-27.98V81.64h27.98
	c6.27,0,11.87-2.83,15.61-7.29l19.55-23.32L258.7,27.7c-3.74-4.46-9.35-7.29-15.61-7.29h-27.98V0h27.98
	C255.62,0,266.85,5.67,274.33,14.59"/>
</svg>
